# xmcd
#
# Track frame offsets:
#	150
#	16275
#	30375
#	49575
#	60900
#	78075
#	89325
#	106800
#	119325
#	134025
#	155625
#	171375
#	185100
#	198075
#	216375
#	225525
#	239700
#	253500
#
# Disc length: 3566 seconds
#
# Revision: 1
# Processed by: cddbd v1.5.1PL2 Copyright (c) Steve Scherf et al.
# Submitted via: audiograbber 1.83.01
#
DISCID=f30dec12
DTITLE=Pioneer - P209
DYEAR=1900
DGENRE=Karaoke Country
TTITLE0=Black, Clint - Nobody'S Home
TTITLE1=Ketchum, Hal - Small Town Saturday Night
TTITLE2=Alabama - Tennessee River
TTITLE3=Jones, George - Race Is On, The
TTITLE4=Shepard, T.G. - Finally
TTITLE5=Lynn, Loretta - You Ain'T Woman Enough 
TTITLE6=Milsap, Ronnie - What A Difference You'Ve Made In My Life
TTITLE7=Oak Ridge Boys - Trying To Love Two Women
TTITLE8=Harris, Emmy Lou - Two More Bottles Of Wine
TTITLE9=Mcentire, Reba - Fancy
TTITLE10=Frickie, Janie and Rich, Charlie - On My Knees
TTITLE11=Arnold, Eddie - Make The World Go Away
TTITLE12=Rich, Charlie - There Won'T Be Anymore
TTITLE13=Hall, Tom T. - Watermelon Wine (Old Dogs, Children And)
TTITLE14=Miller, Roger - Dang Me
TTITLE15=Gatlin Brothers - Houston (Means I'M One Day Closer To You)
TTITLE16=Brown, Jim Ed and Cornelius - I Don'T Want To Have To Marry You
TTITLE17=Murphy, Michael Martin - What'S Forever For
EXTD=
EXTT0=
EXTT1=
EXTT2=
EXTT3=
EXTT4=
EXTT5=
EXTT6=
EXTT7=
EXTT8=
EXTT9=
EXTT10=
EXTT11=
EXTT12=
EXTT13=
EXTT14=
EXTT15=
EXTT16=
EXTT17=
PLAYORDER=
